<?xml version="1.0" standalone="no"?>
<!DOCTYPE svg PUBLIC "-//W3C//DTD SVG 1.1//EN" "http://www.w3.org/Graphics/SVG/1.1/DTD/svg11.dtd" >
<svg xmlns="http://www.w3.org/2000/svg">
<metadata>Generated by IcoMoon</metadata>
<defs>
<font id="icomoon" horiz-adv-x="1024">
<font-face units-per-em="1024" ascent="960" descent="-64" />
<missing-glyph horiz-adv-x="1024" />
<glyph unicode="&#x20;" d="" horiz-adv-x="512" />
<glyph unicode="&#xe600;" d="M512 0c-247.424 0-448 200.576-448 448v0 112l224-224h-92.256c40.224-112.96 139.072-197.92 260.256-218.368v274.368h-56c-30.912 0-56 25.056-56 56s25.088 56 56 56h56v66.304c-65.12 23.136-112 84.672-112 157.728 0 85.056 63.424 154.592 145.44 165.728 7.264 1.472 14.816 2.24 22.56 2.24s15.264-0.768 22.56-2.272c81.984-11.136 145.44-80.672 145.44-165.728 0-73.056-46.912-134.56-112-157.728v-66.304h56c30.944 0 56-25.056 56-56 0-30.912-25.056-56-56-56h-56v-274.368c121.184 20.448 220.032 105.408 260.256 218.368h-92.256l224 224v-111.968c0-247.424-200.576-448-448-448zM512 784c-30.944 0-56-25.056-56-56s25.056-56 56-56c30.912 0 56 25.056 56 56s-25.088 56-56 56z" />
<glyph unicode="&#xe601;" d="M258.816 18.784c-26.784-33.344-176.128 22.304-176.128 22.304s47.648 10.528 80.896 52.32c66.336 83.392-230.784 274.4-27.072 522.784 123.232 150.272 327.2 109.824 366.528 21.376 37.6-84.576 135.648-139.904 236.736-185.376 111.296-50.048 149.568-206.112 20.448-363.456-134.432-163.872-413.92 38.944-501.408-69.952zM622.080 544.288c-109.44 172.384 4.64 343.584 4.64 343.584s56.64-143.264 42.88-187.936c75.488 78.304 161.824 104.672 161.824 104.672s-33.216-140.384-66.592-179.296c108.8 47.328 195.168 1.312 195.168 1.312s-146.4-129.28-337.92-82.336z" />
<glyph unicode="&#xe602;" d="M512 0c-247.424 0-448 200.576-448 448s200.576 448 448 448 448-200.576 448-448-200.576-448-448-448zM512 832c-212.064 0-384-171.936-384-384s171.936-384 384-384 384 171.936 384 384-171.936 384-384 384zM473.376 269.728v0l-22.624-22.624c-12.512-12.48-32.768-12.48-45.248 0l-158.4 158.4c-12.512 12.48-12.512 32.768 0 45.248l22.624 22.624c12.512 12.512 32.768 12.512 45.248 0l113.152-113.12 248.896 248.896c12.48 12.512 32.768 12.512 45.248 0l22.624-22.624c12.48-12.512 12.48-32.768 0-45.248l-271.52-271.552z" />
<glyph unicode="&#xe603;" d="M512 0c-247.424 0-448 200.576-448 448s200.576 448 448 448 448-200.576 448-448-200.576-448-448-448zM512 64c88.736 0 170.176 30.368 235.2 80.928l-538.272 538.272c-50.528-65.024-80.928-146.464-80.928-235.2 0-212.064 171.936-384 384-384zM512 832c-88.736 0-170.176-30.4-235.2-80.928l538.272-538.272c50.56 65.024 80.928 146.464 80.928 235.2 0 212.064-171.936 384-384 384z" />
<glyph unicode="&#xe604;" d="M787.936 339.744c28.768-97.728-35.232-193.12-126.72-109.952-31.488 28.608-80.288 108.704-65.248 83.488 52.256-87.552 56.128-186.816 56.128-186.816l-126.656-72.032c69.664 142.816 56.992 199.84 38.176 251.872-2.624-19.264-6.496-39.52-10.816-59.36-8.608-39.648-18.976-77.472-24.576-101.696 0 0-101.504-139.904-186.208 50.4-102.336-21.248-196 47.168-104.416 130.24 54.24 49.184 104.096 85.024 134.88 105.6-64.768 1.6-168.512-16.096-208.064 33.28 0 0-113.28 120.352 59.648 172.704-14.912 100.608 61.696 186.72 140.832 92.384 49.888-59.488 84.576-113.088 102.848-143.552-3.584 48.832-19.168 161.568 7.392 204.352 26.56 42.752 162.048 110.432 214.88-52.384 104.352 7.648 187.68-72.384 85.376-142.688-42.24-29.056-81.472-51.936-112.64-68.672 68.032 0.576 157.6-6.24 197.024-12.128 0.032-0.096 117.92-80.128-71.84-175.040z" />
<glyph unicode="&#xe605;" d="M469.344 740.16c34.56 0 41.536 0 42.656 0 1.088 0 9.312 0 42.656 0 17.44 0 57.952 104.224 65.472 176.672-32.96 7.104-69.088 11.168-108.128 11.168-37.6 0-72.512-3.776-104.512-10.368 9.024-73.984 44.256-177.472 61.856-177.472zM821.92 703.584c-6.976 21.76-11.296 38.048-11.264 47.040 0.224 58.4-34.848 106.752-108.608 139.52-24.928-78.4-66.4-233.408-104.736-233.408-51.968 0-85.344 0-85.344 0s-31.488 0-85.344 0c-38.88 0-88.352 144.928-106.656 229.568-73.472-32.32-106.624-76.8-106.624-135.68 0-8.608-4.128-23.84-10.912-44.128-6.784-62.56-10.432-128.192-10.432-195.872 0-87.52 6.112-171.552 17.248-249.984 56.896-173.792 171.008-292.64 302.752-292.64s245.856 118.848 302.752 292.608c11.136 78.432 17.248 162.464 17.248 250.016 0 66.624-3.488 131.264-10.080 192.96zM634.816 96.928c-28.256 3.424-8.64 31.264-101.984 38.816-6.016-0.48-12.864-0.768-20.832-0.768-123.328 0-97.28-37.92-128-41.728s-79.936 42.848-85.344 62.624c-5.376 19.744 44.992 7.104 64 0 16.16-6.048 112.352 13.184 141.024 19.136 1.984 1.024 3.392 1.728 3.392 1.728s1.024-0.224 2.496-0.512c1.44 0.256 2.432 0.48 2.432 0.48s1.312-0.672 3.072-1.632c28.288-5.696 124.832-24.48 140.992-18.624 18.976 6.88 69.248 19.168 63.872 0-5.344-19.168-54.496-63.232-85.12-59.52zM597.792 406.272c-34.208 0-21.28 62.304-21.28 62.304h-63.872c0 0-0.448 0.128-1.088 0.32h-63.552c0 0 12.96-62.592-21.344-62.592-168.064 0-213.344 62.592-213.344 62.592s16.96 63.232 64 62.592c47.040-0.64 84.384-20.864 234.656-20.864 7.776 0 14.592-0.128 20.832-0.352 133.056 1.728 169.248 20 213.984 20.608 46.944 0.608 63.872-62.304 63.872-62.304s-45.152-62.304-212.864-62.304z" />
<glyph unicode="&#xe606;" d="M512 0c-247.424 0-448 200.576-448 448s200.576 448 448 448 448-200.576 448-448-200.576-448-448-448zM512 832c-212.064 0-384-171.936-384-384s171.936-384 384-384 384 171.936 384 384-171.936 384-384 384zM736 384c-35.36 0-64 28.64-64 64s28.64 64 64 64 64-28.64 64-64-28.64-64-64-64zM512 384c-35.36 0-64 28.64-64 64s28.64 64 64 64 64-28.64 64-64-28.64-64-64-64zM288 384c-35.36 0-64 28.64-64 64s28.64 64 64 64 64-28.64 64-64-28.64-64-64-64z" />
<glyph unicode="&#xe607;" d="M512 960c-282.784 0-512-229.216-512-512s229.216-512 512-512 512 229.248 512 512c0 282.784-229.216 512-512 512zM512-32c-265.088 0-480 214.912-480 480s214.912 480 480 480 480-214.912 480-480c0-265.088-214.912-480-480-480zM470.112 592.96c-24.512 0-47.68-5.504-68.352-15.328l20-44.192c14.56 7.168 30.976 11.2 48.352 11.2 59.712 0 108.128-47.584 108.128-106.336 0-58.72-48.416-106.304-108.128-106.304s-108.128 47.584-108.128 106.304v43.488c0 72.064-59.392 130.464-132.672 130.464-69.952 0-127.136-53.28-132.192-120.8h-0.512v-188.448h49.152v178.784c0 45.376 37.408 82.144 83.552 82.144s83.552-36.768 83.552-82.144v-43.488c0-85.408 70.4-154.624 157.248-154.624s157.248 69.248 157.248 154.624c0 85.408-70.4 154.656-157.248 154.656zM922.048 352.768c-8.064-2.048-16.544-3.168-25.248-3.168-55.872 0-101.152 45.024-101.152 100.544s45.28 100.544 101.152 100.544c5.216 0 7.904-0.384 14.016-1.152l23.808 41.248c-11.712 3.648-23.84 5.6-37.856 5.6-52.576 0-98.56-27.488-124.576-68.704-26.016 41.216-72 68.704-124.576 68.704-14.016 0-26.144-1.952-37.856-5.6l23.84-41.248c6.112 0.736 8.832 1.152 14.048 1.152 55.84 0 101.152-45.024 101.152-100.544s-45.28-100.544-101.152-100.544c-8.736 0-17.184 1.088-25.248 3.168-4.448 1.152-24.64-40.224-24.64-40.224 15.584-5.568 32.384-8.608 49.888-8.608 52.544 0 98.56 27.488 124.576 68.704 26.016-41.216 72-68.704 124.576-68.704 17.504 0 34.304 3.040 49.888 8.608 0 0-20.192 41.376-24.64 40.224z" />
<glyph unicode="&#xe608;" d="M512-64c-282.784 0-512 229.248-512 512s229.216 512 512 512 512-229.216 512-512-229.216-512-512-512zM470.112 592.96c-24.512 0-47.68-5.504-68.352-15.328l20-44.192c14.56 7.168 30.976 11.2 48.352 11.2 59.712 0 108.128-47.584 108.128-106.336 0-58.72-48.416-106.304-108.128-106.304s-108.128 47.616-108.128 106.304v43.488c0 72.064-59.392 130.464-132.704 130.464-69.952 0-127.136-53.28-132.192-120.8h-0.48v-188.48h49.152v178.784c0 45.376 37.408 82.144 83.552 82.144s83.552-36.768 83.552-82.144v-43.488c0-85.408 70.4-154.624 157.248-154.624s157.28 69.248 157.28 154.624c-0.032 85.44-70.432 154.688-157.28 154.688zM896.8 596.416c-52.544 0-98.56-27.488-124.576-68.704-26.016 41.216-72 68.704-124.576 68.704-14.016 0-26.144-1.952-37.856-5.6l23.808-41.28c6.112 0.768 8.8 1.152 14.048 1.152 55.84 0 101.12-45.024 101.12-100.544s-45.28-100.544-101.12-100.544c-8.736 0-17.184 1.088-25.28 3.168-4.448 1.12-24.64-40.224-24.64-40.224 15.584-5.568 32.384-8.608 49.888-8.608 52.544 0 98.56 27.488 124.576 68.704 26.016-41.216 72-68.704 124.576-68.704 17.504 0 34.304 3.040 49.888 8.608 0 0-20.192 41.376-24.64 40.224-8.064-2.080-16.544-3.168-25.248-3.168-55.872 0-101.152 45.024-101.152 100.544s45.28 100.544 101.152 100.544c5.216 0 7.936-0.384 14.048-1.152l23.808 41.28c-11.712 3.616-23.84 5.6-37.824 5.6z" />
<glyph unicode="&#xe609;" d="M960 224l-367.232 137.696c-3.84-67.84-11.008-128.608-20.544-177.856l107.776-71.84v-112l-168 56-168-56v112l107.776 71.84c-9.536 49.248-16.704 110.016-20.544 177.856l-367.232-137.696v112l56.512 35.328c-0.32 6.72-0.512 13.6-0.512 20.672 0 61.856 12.544 112 28 112 14.272 0 25.952-42.944 27.648-98.208l113.28 70.816c-0.544 8.8-0.928 17.888-0.928 27.392 0 61.856 12.544 112 28 112 14.88 0 26.912-46.528 27.84-105.12l86.080 53.792c8.128 189.344 41.792 331.328 82.080 331.328s73.952-141.984 82.080-331.296l86.080-53.792c0.896 58.592 12.96 105.12 27.84 105.12 15.456 0 28-50.144 28-112 0-9.504-0.384-18.592-0.928-27.424l113.28-70.816c1.728 55.264 13.376 98.208 27.648 98.208 15.456 0 28-50.144 28-112 0-7.072-0.224-13.952-0.512-20.672l56.512-35.328v-112z" />
<glyph unicode="&#xe60a;" d="M832 128h-64v512c0 106.048-85.952 192-192 192h-238.24c22.176 38.112 62.976 64 110.24 64h384c70.688 0 128-57.312 128-128v-512c0-70.688-57.312-128-128-128zM704 640v-512c0-70.688-57.312-128-128-128h-384c-70.688 0-128 57.312-128 128v512c0 70.688 57.312 128 128 128h384c70.688 0 128-57.312 128-128zM128 640v-512c0-35.36 28.64-64 64-64h384c35.36 0 64 28.64 64 64v512c0 35.36-28.64 64-64 64h-384c-35.36 0-64-28.64-64-64zM224 384l160 192 160-192-160-192-160 192zM192 640h64v-64h-64v64zM576 128h-64v64h64v-64z" />
<glyph unicode="&#xe60b;" d="M238.016 490.016l-1.472 4.8-1.184 6.304-0.832 3.456v14.208l1.408 5.568 1.472 5.952 1.888 6.176 2.56 6.912 3.392 7.168 4.768 7.2v5.056l0.48 4.704 0.704 6.432 2.048 7.168 1.888 7.776 1.504 3.584 1.728 3.328 2.24 3.712 2.432 2.72v17.792l1.408 9.152 1.408 10.624 2.528 12.672 3.488 13.216 2.592 7.296 2.56 7.904 2.784 7.424 3.36 7.904 3.424 8.672 3.936 8.128 4.416 8.64 5.6 8.672 2.56 4.928 2.784 4.064 5.952 9.152 6.144 9.152 7.008 9.376 7.488 9.152 8.128 8.992 8.48 9.28 10.24 9.984 6.528 6.048 7.936 6.56 8.032 5.792 8.704 5.568 8.352 4.928 9.44 4.128 10.016 5.088 9.952 3.456 9.952 3.584 10.72 3.552 10.72 2.72 11.296 2.24 11.424 1.984 11.232 1.6 11.296 1.632 12.064 0.704h35.52l11.84-1.6 11.904-1.504 12.128-1.376 11.232-2.848 11.904-2.72 11.168-3.072 12.224-3.456 11.2-4.192 10.72-4.8 11.424-5.088 10.464-5.568 10.112-6.144 9.92-6.816 8.608-6.304 3.936-3.584 4.192-2.592 7.936-7.168 6.72-6.912 6.656-7.168 6.528-7.904 5.376-7.648 6.368-7.904 4.48-8.512 4.512-7.552 4.8-8.768 3.936-7.648 6.72-16.192 3.296-8.384 2.56-7.776 2.56-8.416 2.304-7.904 1.664-6.784 2.080-8.032 3.648-14.336 2.336-12.48 1.504-12.096 1.312-9.76 2.048-14.816 0.48-2.368 1.632-2.72 4.416-7.648 2.816-5.184 2.528-5.44 3.232-5.792 2.816-6.944 1.824-7.168 2.016-7.776 1.536-8 0.704-3.936 0.576-4.832v-4.192l-0.576-4.192v-5.216l-1.184-5.056-2.112-9.76-2.4-4.928-1.76-5.568v-1.376l0.832-1.728 2.432-4.064 10.496-16.448 8.288-12.352 3.936-8.288 5.344-9.024 4.64-9.888 5.344-10.592 5.376-11.872 6.048-13.472 3.264-8.352 3.136-8.032 2.72-8.544 2.656-7.648 2.016-8.032 2.048-7.552 2.592-14.688 2.048-15.072 1.408-13.312v-18.816l-0.928-6.688-1.344-11.488-1.888-10.368-2.88-9.376-1.056-3.84-2.016-4.576-1.696-3.232-2.24-3.968-2.016-2.496-2.528-3.2-2.24-2.592-2.4-2.208-2.88-1.344-2.592-1.344-2.112-0.736h-3.232l-2.080 0.736-3.968 2.080-1.824 1.344-1.888 1.472-2.080 1.984-2.080 2.208-3.456 4.096-4.128 5.792-3.232 5.952-3.232 4.8-3.136 5.568-4.448 9.888-4.992 10.272-0.608 0.352h-0.96l-2.048-1.6-1.184-2.688-1.952-3.328-3.424-10.016-5.12-14.208-6.592-17.056-4.96-8.544-5.216-8.896-6.144-9.984-6.528-9.792-3.36-4.448-4.064-4.8-9.344-9.76 0.832-0.864 1.28-1.376 4.64-2.944 19.424-9.888 8.48-5.056 8.064-4.928 8-6.176 7.136-6.432 3.488-2.848 2.592-3.328 2.656-3.84 2.24-4.192 1.184-3.456 1.472-4.192 0.608-3.584 0.704-4.192-0.704-2.848v-2.848l-0.576-2.976-1.472-2.72-0.576-2.112-1.312-2.592-3.52-5.088-3.232-4.064-2.528-3.072-2.112-2.24-5.344-4.192-6.048-3.616-6.496-3.456-6.88-3.328-7.776-3.2-4.128-1.376-3.712-1.088-8.96-2.24-9.312-2.080-9.312-2.112-10.144-1.728-10.496-0.48-10.72-1.344h-33.28l-12 0.736-11.2 1.12-12.032 1.728-11.968 1.344-12.608 1.856-12.192 3.232-11.904 2.464-11.84 3.584-12.128 4.576-11.904 3.84-6.24 2.208-5.6 2.112-3.52 1.472-3.488 0.736h-9.888l-11.392 0.896-5.792 0.608-7.456 0.864-4.768-4.576-6.528-4.32-8.832-4.576-9.792-5.696-5.952-3.104-6.176-2.464-13.728-5.952-7.456-1.984-7.808-2.208-10.848-2.208-6.784-0.608-7.2-0.608-7.488-0.864-8.64-0.384h-35.584l-20.096 0.384-19.488 2.112-9.888 1.472-9.6 1.472-9.312 1.472-9.312 1.984-8.64 2.976-8.64 2.080-7.776 3.328-7.36 3.104-6.848 3.456-5.952 3.84-5.952 4.576-2.016 2.208-2.656 2.688-2.016 2.368-1.824 2.72-1.632 2.72-1.312 2.72-1.856 5.792-0.672 2.976-0.832 3.328v3.072l0.832 3.456v3.488l0.672 3.456v6.912l0.32 3.712 1.536 4.192 1.312 4.192 2.368 5.056 1.696 1.984 1.408 2.24 3.712 4.8 2.944 2.464 2.784 1.728 2.56 2.208 4.096 1.344 3.232 2.080 4.064 2.24 4.64 1.472 4.64 1.504 5.344 1.248 11.2 1.6 6.656 0.576 1.728 0.608h0.352l0.832 0.768v0.832l-1.184 1.728-3.488 1.728-8.704 8.032-5.824 4.928-6.816 6.336-6.848 7.040-7.136 9.024-8.128 10.112-3.072 5.472-4.064 5.664-3.488 6.56-3.136 7.168-4.224 6.784-2.72 7.776-3.264 7.776-3.264 8.672-2.432 8.256-2.24 10.272-0.704 0.384h-0.672l-0.352 0.736h-0.8l-1.376-0.736-0.704-0.384-0.96-1.728-0.352-2.112-0.704-1.856-1.248-3.072-4-7.552-2.048-4.576-3.264-3.968-3.488-4.8-3.872-5.312-4.064-4.704-4.768-4.576-4.448-4.32-4.864-3.36-5.376-3.584-5.12-2.112-6.080-1.6-5.92-0.576h-1.408l-1.344 0.608-1.056 2.496-1.76 1.216-2.304 5.952-1.408 3.2-1.536 4.576-1.28 4.8-0.672 4.704-1.888 10.752-0.704 6.304v20.768l0.704 15.424 1.184 7.904 1.376 8.16 1.28 8.768 2.24 8.16 2.528 9.408 2.592 9.12 3.488 9.408 3.264 9.024 4.512 9.152 4.256 9.888 5.12 9.248 6.048 10.016 6.144 9.024 6.432 9.984 5.376 6.912 6.848 8.032 7.2 8.032 3.36 3.84 4.096 4.32 5.92 5.44 6.080 5.536 9.888 9.376 7.488 5.792 2.592 2.144z" />
<glyph unicode="&#xe60c;" d="M957.6 139.776c-3.040-44-19.808-43.552-19.808-43.552h-158.432c0 0 21.632 16.896 19.808 79.2s-195.328 107.904-237.632 124.864c-42.304 16.96-53.408 57.472-19.808 71.36 28.736 11.84 51.712 81.504 57.792 101.504 0.128-2.272 3.872-0.192 21.44 23.36 30.304 40.608-19.808 71.36-19.808 71.36s19.808 56.864 19.808 107.040c0 11.104-2.080 22.432-5.984 33.504 8.128 1.344 16.672 2.176 25.76 2.176 76.736 0 155.872-45.024 158.432-178.4 1.92-99.648-62.752-158.208 0-231.904-47.040-12.256-61.536-23.296-59.424-35.68 2.144-12.352 220.896-80.864 217.856-124.832zM599.52 473.152c-0.096 1.632 1.632 5.536 1.632 5.536s-0.608-2.144-1.632-5.536zM561.536 496.512c-17.568-23.552-21.28-25.632-21.44-23.36 1.024 3.392 1.632 5.536 1.632 5.536s-1.728-3.872-1.632-5.536c-6.080-20-29.024-89.664-57.792-101.504-33.6-13.856-22.496-54.4 19.808-71.36s235.808-62.56 237.632-124.864c1.824-62.304-19.808-79.2-19.808-79.2h-633.664c0 0-21.632 16.896-19.808 79.2s195.328 107.904 237.632 124.864c42.304 16.96 53.408 57.472 19.808 71.36-28.736 11.84-51.712 81.504-57.792 101.504 0.096 1.632-1.632 5.536-1.632 5.536s0.608-2.112 1.632-5.536c-0.128-2.272-3.872-0.192-21.44 23.36-30.304 40.608 19.808 71.36 19.808 71.36s-22.144 28.768-19.808 107.040c2.368 78.272 39.648 71.328 39.648 71.328s43.872 53.536 99.008 53.536c3.2 0 6.048 0 8.64 0 4.576 0 8.16 0 11.168 0 0 0 11.2 0 11.168 0 2.624 0 5.44 0 8.64 0 79.2 0 138.624-65.408 138.624-124.864 0-50.176-19.808-107.040-19.808-107.040s50.080-30.72 19.776-71.36z" />
<glyph unicode="&#xe60d;" d="M955.744 583.936c-12.96-76.8-81.536-134.208-160.832-135.456-70.656-1.12-140.096-8.96-206.688-33.856-14.592-5.44-28.48-12.256-41.216-21.152-23.040-16.064-35.744-36.544-34.944-65.824 1.344-50.336 0.448-100.704 0.224-151.072-0.544-113.664-102.72-192.128-215.264-165.472-27.616 6.528-49.312 22.176-65.888 43.968-53.44 70.272-102.208 143.712-147.52 219.264-26.176 43.648-20.224 92.064-15.36 139.136 2.4 23.2 20.128 40.16 38.688 54.4 20.96 16.096 44.576 28 67.808 40.544 12.576 6.816 25.28 13.632 37.056 21.696 23.712 16.224 27.072 34.080 12.064 58.304-7.936 12.8-19.456 22.24-31.040 31.616-11.616 9.408-23.392 18.496-34.752 28.064-34.208 28.768-42.976 65.536-33.984 107.424 17.472 81.312 82.88 134.048 167.168 134.4 83.008 0.352 166.016 0.064 248.992 0.064 81.28 0 162.56 0.096 243.808-0.032 102.944-0.16 175.232-70.976 174.688-172.192-0.224-44.608 4.448-89.472-3.008-133.824zM784.192 788.064c-80.672 0.064-161.376 0.032-242.048 0.032-83.584 0-167.136 0.096-250.688-0.064-31.68-0.064-54.432-16.832-63.872-44.96-3.744-11.168-2.336-19.008 7.744-26.4 15.2-11.168 30.24-22.816 43.872-35.712 43.2-40.896 66.272-89.472 53.696-149.568-9.12-43.552-38.88-72.192-76-94.208-24.608-14.624-50.016-27.936-74.976-42.016-4.896-2.752-11.872-5.344-11.936-11.328-0.192-21.216-5.984-43.456 6.080-63.136 41.856-68.32 86.368-134.976 133.888-199.648 6.304-8.576 14.176-12.032 24.896-12.384 44.576-1.44 73.344 24.992 73.568 68.928 0.288 53.76 0.352 107.488 0.128 161.248-0.064 20.704 3.968 40.512 12.224 59.36 23.616 53.856 67.808 85.952 120.864 107.744 78.208 32.16 160.768 42.4 244.736 44.256 42.496 0.928 68.576 26.368 68.768 68.256 0.16 33.376 0.128 66.752 0 100.128-0.096 43.872-26.176 69.44-70.944 69.472z" />
<glyph unicode="&#xe60e;" d="M916.48 621.888l-162.976-201.312c-3.232-5.632-7.104-10.624-12-14.816l-2.080-2.56-0.576 0.768c-9.28-7.040-20.224-11.968-32.704-11.968-11.392 0-21.376 4.32-30.208 10.272l-0.576-0.864-166.4 112 0.576 0.864c-14.88 10.048-25.28 26.304-25.28 45.728 0 30.944 24.832 56 55.456 56 11.392 0 21.376-4.32 30.208-10.272l0.576 0.864 132.48-89.152 176.096 144c5.088 6.272 12.512 10.56 21.184 10.56 15.328 0 27.744-12.544 27.744-28 0-9.216-4.704-17.024-11.52-22.112zM539.744 672c-61.28 0-110.944 50.144-110.944 112s49.664 112 110.944 112 110.944-50.144 110.944-112-49.696-112-110.944-112zM455.712 426.88l165.504-97.888-0.128-0.32c17.376-9.472 29.6-27.36 29.6-48.672 0-30.912-24.832-56-55.456-56-5.888 0-11.296 1.664-16.64 3.392l-0.704-1.632c0 0-90.336 29.664-162.144-15.36-71.616-44.896-134.24-137.888-157.472-175.072-1.472-3.68-3.936-6.656-6.112-9.92-2.368-3.936-3.616-6.144-3.616-6.144l-0.32 0.224c-10.176-11.712-24.64-19.488-41.28-19.488-30.624 0-55.456 25.088-55.456 56 0 10.112 3.392 19.104 8.032 27.328l-1.152 0.832 171.648 327.104 2.656 0.416c15.008 21.92 40 36.32 68.384 36.32 21.024 0 40-8.128 54.656-21.12zM335.2 563.52l0.224-0.672-114.848-38.656 33.344-84.16c5.216-5.088 8.512-12.16 8.512-20.064 0-15.456-12.416-28-27.744-28-13.312 0-23.904 9.664-26.592 22.304l-95.84 106.112c-10.048 10.144-16.256 24.16-16.256 39.616 0 24.736 16.128 45.056 38.144 52.48l-0.224 0.64 166.4 56 0.224-0.64c5.536 1.856 11.168 3.52 17.312 3.52 30.624 0 55.456-25.056 55.456-56 0.032-24.736-16.096-45.056-38.112-52.48z" />
<glyph unicode="&#xe60f;" d="M941.248 109.248c11.584-11.584 18.752-27.584 18.752-45.248 0-35.36-28.64-64-64-64-17.664 0-33.664 7.168-45.248 18.752v0l-180.48 180.48c-62.784-44.672-139.36-71.232-222.272-71.232-212.064 0-384 171.936-384 384s171.936 384 384 384 384-171.936 384-384c0-82.912-26.56-159.488-71.232-222.24l180.48-180.512zM448 768c-141.376 0-256-114.624-256-256s114.624-256 256-256 256 114.624 256 256-114.624 256-256 256z" />
<glyph unicode="&#xe610;" d="M822.624 553.376v0l-288-288c-5.792-5.792-13.792-9.376-22.624-9.376s-16.832 3.584-22.624 9.376v0l-288 288c-5.792 5.792-9.376 13.792-9.376 22.624 0 17.664 14.336 32 32 32h576c17.664 0 32-14.336 32-32 0-8.832-3.584-16.832-9.376-22.624z" />
<glyph unicode="&#xe611;" d="M201.376 342.624v0l288 288c5.792 5.792 13.792 9.376 22.624 9.376s16.832-3.584 22.624-9.376v0l288-288c5.792-5.792 9.376-13.792 9.376-22.624 0-17.664-14.336-32-32-32h-576c-17.664 0-32 14.336-32 32 0 8.832 3.584 16.832 9.376 22.624z" />
<glyph unicode="&#xe612;" d="M832 64h-640c-70.688 0-128 57.312-128 128v224h192c0-35.36 28.64-64 64-64h384c35.36 0 64 28.64 64 64v0h192v-224c0-70.688-57.312-128-128-128zM320 480h-256c0 70.688 57.312 128 128 128v96c0 70.688 57.312 128 128 128h384c70.688 0 128-57.312 128-128v-96c70.688 0 128-57.312 128-128v0h-640zM768 672c0 35.36-28.64 64-64 64h-384c-35.36 0-64-28.64-64-64v-64h512v64z" />
<glyph unicode="&#xe613;" d="M945.632 497.088h-0.224c-3.968-27.904-17.6-30.144-33.824-30.144-19.392 0-35.040 12.416-35.040 32.16 0 17.12 6.976 34.496 6.976 34.496 2.048 7.2 18.464 51.968-10.816 118.848-53.632 91.648-161.632 92.992-174.4 87.776-12.864-5.12-31.84-7.712-31.84-7.712-19.52 0-35.168 16.16-35.168 35.808 0 16.48 10.848 30.432 25.632 34.688 0 0 0.32 0.544 0.832 0.64 1.056 0.224 2.144 1.344 3.328 1.44 15.008 2.912 68.64 13.632 120.8 1.216 93.28-22.112 221.344-113.888 163.744-309.216zM690.688 628.96c-13.376 0-24.128 11.008-24.128 24.544 0 13.76 10.752 24.768 24.128 24.768 0 0 150.816 28.384 132.8-136.512 0-0.992-0.096-1.76-0.32-2.624-1.696-11.68-11.808-20.608-23.712-20.608-13.44 0-24.352 10.912-24.352 24.544 0 0 23.904 110.24-84.416 85.888zM702.912 582.368c40.864-41.568 6.752-98.784 6.752-98.784s-16.928-19.104 17.92-25.984c34.976-7.104 144.896-58.912 84.416-189.888-60.512-130.752-259.968-194.368-407.776-182.592-140.48 11.232-321.12 58.72-339.776 231.68 0 0-9.888 78.368 64.768 179.744 0 0 107.36 152.576 232.416 196.096 125.184 43.296 139.744-30.016 139.744-73.344-6.656-36.768-19.104-58.368 27.904-43.552-0.032 0.064 123.008 58.144 173.632 6.624zM415.136 488.096c-146.72-6.88-265.344-86.88-265.344-186.624 0-99.648 118.624-174.496 265.344-167.52 146.816 6.784 265.696 100.288 265.696 199.936 0 99.52-118.848 161.088-265.696 154.208zM294.912 196.928c-41.088 22.688-39.552 67.232-39.552 67.232s-17.056 140.64 130.496 158.24c147.808 17.44 174.176-126.144 129.248-185.216-44.928-59.040-133.824-87.84-220.192-40.256zM346.176 312.032c-27.552-2.912-47.296-27.36-47.296-50.72 0-23.456 22.208-39.616 49.76-36.32 27.456 3.168 49.792 24.768 49.792 48.128 0 23.424-20.608 41.984-52.256 38.912zM443.36 328.96c-4.928 8.32-16.288 10.688-27.232 2.4-9.44-6.976-11.36-20.288-6.24-28.608 4.928-8.512 16.416-9.504 25.76-2.4 9.12 7.36 12.64 20.128 7.712 28.608z" />
<glyph unicode="&#xe614;" d="M839.904 160.352l24.096-96.352-95.36 71.52c-20.768-4.416-42.176-7.52-64.64-7.52-141.376 0-256 93.12-256 208s114.624 208 256 208 256-93.12 256-208c0-74.176-48.16-138.848-120.096-175.648zM608 448c-17.664 0-32-14.336-32-32s14.336-32 32-32 32 14.336 32 32-14.336 32-32 32zM768 448c-17.664 0-32-14.336-32-32s14.336-32 32-32 32 14.336 32 32-14.336 32-32 32zM384 336c0-27.616 4.928-54.24 13.92-79.36-4.64-0.192-9.216-0.64-13.92-0.64-10.656 0-21.152 0.512-31.52 1.44-8.224 0.736-16.288 1.952-24.352 3.232-1.888 0.32-3.84 0.448-5.728 0.768-19.744 3.456-38.784 8.672-57.056 15.232v0l-105.344-52.672 23.872 95.456c-18.144 13.12-34.656 27.968-49.248 44.288-0.512 0.576-0.96 1.184-1.44 1.728-6.336 7.2-12.288 14.688-17.856 22.4-1.472 2.048-2.816 4.192-4.256 6.304-4.352 6.4-8.48 12.928-12.256 19.616-1.6 2.848-3.104 5.728-4.608 8.64-3.232 6.208-6.208 12.544-8.928 18.976-1.408 3.328-2.784 6.624-4.064 10.016-2.4 6.336-4.448 12.8-6.368 19.36-1.024 3.52-2.144 7.008-3.040 10.592-1.728 6.944-2.976 14.048-4.128 21.184-0.512 3.232-1.248 6.4-1.632 9.696-1.28 10.464-2.048 21.024-2.048 31.744 0 159.072 143.264 288 320 288 152.384 0 279.68-95.968 311.904-224.352-172.96-3.68-311.904-123.744-311.904-271.648zM272 704c-26.496 0-48-21.504-48-48s21.504-48 48-48 48 21.504 48 48-21.504 48-48 48zM544 656c0 26.496-21.504 48-48 48s-48-21.504-48-48 21.504-48 48-48 48 21.504 48 48z" />
<glyph unicode="&#xe615;" d="M828.768 97.6l-45.248 45.248c69.504 69.504 112.48 165.504 112.48 271.552 0 212.064-171.936 384-384 384s-384-171.936-384-384c0-106.048 42.976-202.048 112.48-271.52l-45.248-45.28c-81.088 81.088-131.232 193.088-131.232 316.8 0 247.424 200.576 448 448 448s448-200.576 448-448c0-123.712-50.144-235.712-131.232-316.8zM512 702.4c159.072 0 288-128.928 288-288 0-79.52-32.224-151.52-84.352-203.648l-45.248 45.248c40.544 40.544 65.6 96.544 65.6 158.4 0 123.712-100.288 224-224 224s-224-100.288-224-224c0-61.856 25.056-117.856 65.6-158.4l-45.248-45.248c-52.128 52.096-84.352 124.096-84.352 203.648 0 159.040 128.928 288 288 288zM512 542.4c70.688 0 128-57.312 128-128s-57.312-128-128-128-128 57.312-128 128 57.312 128 128 128z" />
</font>
</defs>
</svg>
